#!OML:ASF E:\Steps\Project 1\Capture day 1\Session 2\Subject.ASF
:FULLY-SPECIFIED
:DEGREES
296
root 7.91057 15.8831 20.5805 -157.331 -5.09958 178.654
lowerback -24.6029 -4.2514 -4.72602
upperback 1.49614 -4.48877 0.770882
thorax 16.0887 -2.49384 1.88351
lowerneck -2.25124 -2.97067 -1.83391
upperneck 16.5328 -3.67131 4.29348
head 5.4568 -1.27261 1.48176
rclavicle -1.15295e-014 -2.78299e-015
rhumerus -45.9323 -28.4835 -66.9657
rradius 25.9042
rwrist 8.08815
rhand -7.62415 -54.8945
rfingers 7.12502
rthumb 18.2705 -84.0565
lclavicle -1.15295e-014 -2.78299e-015
lhumerus -21.6891 -0.846888 83.7195
lradius 30.9392
lwrist -1.83755
lhand -22.867 -13.6212
lfingers 7.12502
lthumb 3.57157 16.3287
rfemur -41.6374 5.2277 16.1422
rtibia 11.9401
rfoot -5.66571 -11.5951
rtoes -41.3825
lfemur -12.3065 -11.384 -21.296
ltibia 21.5631
lfoot -15.1333 -2.77378
ltoes -34.4755
297
root 7.93022 15.8964 20.4555 -157.394 -4.86941 178.894
lowerback -24.4481 -4.13729 -4.42862
upperback 1.36857 -4.45188 0.848132
thorax 15.821 -2.45657 1.83123
lowerneck -1.87705 -3.04378 -1.86895
upperneck 16.2595 -3.77811 4.38226
head 5.3137 -1.33117 1.51334
rclavicle 4.61677e-014 -5.96354e-016
rhumerus -45.976 -28.5088 -66.8536
rradius 25.7197
rwrist 8.00756
rhand -7.74517 -54.7631
rfingers 7.12502
rthumb 18.154 -83.9359
lclavicle 4.61677e-014 -5.96354e-016
lhumerus -22.2688 -0.6641 83.6877
lradius 30.6115
lwrist -2.03606
lhand -23.3194 -13.0941
lfingers 7.12502
lthumb 3.13464 16.8626
rfemur -41.6295 5.47119 16.5713
rtibia 12.8527
rfoot -6.44473 -11.2002
rtoes -39.4309
lfemur -12.2835 -11.5739 -21.0422
ltibia 22.518
lfoot -14.7546 -2.63712
ltoes -33.9802
298
root 7.94914 15.9109 20.3289 -157.418 -4.57568 179.044
lowerback -24.3563 -4.06213 -4.21839
upperback 1.26713 -4.43841 0.942359
thorax 15.6339 -2.43884 1.83424
lowerneck -1.74783 -3.09434 -2.1495
upperneck 16.2002 -3.86415 4.65815
head 5.28651 -1.37409 1.643
rclavicle -2.93704e-014 -1.39149e-014
rhumerus -45.8182 -28.3517 -66.8581
rradius 25.5611
rwrist 7.84962
rhand -7.81034 -54.4852
rfingers 7.12502
rthumb 18.0913 -83.6639
lclavicle -2.93704e-014 -1.39149e-014
lhumerus -22.7177 -0.0380881 83.6312
lradius 30.0988
lwrist -2.4384
lhand -23.4457 -12.3588
lfingers 7.12502
lthumb 3.01267 17.5997
rfemur -41.5628 5.56631 16.9767
rtibia 13.6437
rfoot -7.26526 -10.6278
rtoes -38.1803
lfemur -12.3716 -11.5726 -20.9272
ltibia 23.6912
lfoot -14.3503 -2.32534
ltoes -35.6745
299
root 7.97027 15.9317 20.2041 -157.528 -4.37239 179.179
lowerback -24.1298 -4.03519 -3.99312
upperback 1.19285 -4.49021 1.00514
thorax 15.4036 -2.44678 1.77323
lowerneck -1.90175 -2.88987 -2.29811
upperneck 16.4911 -3.57155 4.71501
head 5.39592 -1.22238 1.70099
rclavicle 4.12478e-014 7.55382e-015
rhumerus -45.6329 -28.4514 -66.7657
rradius 25.316
rwrist 8.29726
rhand -7.41969 -54.1782
rfingers 7.12502
rthumb 18.4671 -83.3216
lclavicle 4.12478e-014 7.55382e-015
lhumerus -23.197 0.805262 83.4008
lradius 29.7037
lwrist -2.59114
lhand -23.5171 -13.4228
lfingers 7.12502
lthumb 2.94377 16.5367
rfemur -41.2353 5.33113 17.5276
rtibia 14.2191
rfoot -7.95199 -10.0367
rtoes -37.633
lfemur -12.4744 -11.5404 -20.7975
ltibia 25.0132
lfoot -13.8239 -2.0965
ltoes -37.7013
300
root 7.99144 15.9507 20.0759 -157.667 -4.2342 179.251
lowerback -24.6466 -4.07355 -3.98933
upperback 1.56579 -4.51347 1.10284
thorax 16.1691 -2.46029 1.83856
lowerneck -2.04031 -2.81066 -2.24839
upperneck 16.1954 -3.48605 4.6279
head 5.32219 -1.20286 1.66614
rclavicle -4.24902e-014 -5.1684e-015
rhumerus -44.7855 -28.9743 -66.913
rradius 25.0951
rwrist 8.68304
rhand -7.87498 -54.5915
rfingers 7.12502
rthumb 18.0291 -83.7759
lclavicle -4.24902e-014 -5.1684e-015
lhumerus -22.6872 2.12193 83.2065
lradius 28.7701
lwrist -3.1041
lhand -22.9477 -14.2587
lfingers 7.12502
lthumb 3.49365 15.6924
rfemur -40.793 5.12799 17.9665
rtibia 14.717
rfoot -8.44346 -9.722
rtoes -37.7945
lfemur -12.6279 -11.5173 -20.7255
ltibia 26.4469
lfoot -13.1585 -2.14614
ltoes -37.1235
301
root 8.01261 15.9649 19.9468 -157.693 -4.02967 179.315
lowerback -24.6176 -4.02365 -3.81993
upperback 1.46767 -4.50334 1.08717
thorax 16.0147 -2.44105 1.73191
lowerneck -2.00601 -2.77745 -1.99579
upperneck 16.3665 -3.40595 4.3452
head 5.3579 -1.15783 1.54155
rclavicle 8.84592e-015 -2.5842e-015
rhumerus -44.8107 -29.0724 -66.919
rradius 25.0258
rwrist 8.88212
rhand -8.53956 -55.3265
rfingers 7.12502
rthumb 17.3896 -84.5686
lclavicle 8.84592e-015 -2.5842e-015
lhumerus -22.9469 3.38179 82.8104
lradius 27.7347
lwrist -4.05378
lhand -22.7662 -14.5731
lfingers 7.12502
lthumb 3.66888 15.3751
rfemur -40.4295 5.01101 18.3874
rtibia 15.0684
rfoot -8.64364 -9.44846
rtoes -38.9197
lfemur -13.0469 -11.2994 -20.6553
ltibia 28.148
lfoot -12.4257 -2.41227
ltoes -35.03
302
root 8.03626 15.9816 19.8223 -157.681 -3.87489 179.291
lowerback -24.5614 -4.04579 -3.78108
upperback 1.36532 -4.55271 1.08209
thorax 15.8568 -2.4604 1.69032
lowerneck -2.06319 -2.72066 -1.89785
upperneck 16.6293 -3.29802 4.18324
head 5.44169 -1.09706 1.48134
rclavicle -1.46604e-014 4.96962e-015
rhumerus -44.84 -29.733 -66.4732
rradius 24.7903
rwrist 10.2754
rhand -7.89379 -56.2165
rfingers 7.12502
rthumb 18.011 -85.4026
lclavicle -1.46604e-014 4.96962e-015
lhumerus -23.4991 3.83556 82.5639
lradius 27.2808
lwrist -4.05397
lhand -22.8898 -14.322
lfingers 7.12502
lthumb 3.54951 15.6282
rfemur -39.9887 4.86394 18.6991
rtibia 15.1372
rfoot -8.79349 -9.07666
rtoes -39.0093
lfemur -13.7078 -10.976 -20.6265
ltibia 30.1638
lfoot -11.3336 -2.9001
ltoes -33.1337
303
root 8.06209 16.0002 19.7007 -157.696 -3.9163 179.216
lowerback -24.7022 -4.19647 -3.89807
upperback 1.44101 -4.7218 1.1706
thorax 16.0636 -2.54992 1.78437
lowerneck -2.04431 -2.6558 -2.00558
upperneck 16.5249 -3.21605 4.21959
head 5.40553 -1.0679 1.51455
rclavicle -1.44119e-015 1.98785e-016
rhumerus -44.3971 -30.3052 -66.3353
rradius 24.7171
rwrist 11.0581
rhand -7.86003 -57.3512
rfingers 7.12502
rthumb 18.0435 -86.5342
lclavicle -1.44119e-015 1.98785e-016
lhumerus -23.9187 3.75554 82.5973
lradius 27.1583
lwrist -3.17759
lhand -21.5634 -13.674
lfingers 7.12502
lthumb 4.83034 16.251
rfemur -39.4969 4.68222 18.9149
rtibia 15.1904
rfoot -9.08654 -8.76878
rtoes -38.1876
lfemur -14.5013 -10.722 -20.5724
ltibia 32.3886
lfoot -9.89197 -3.3748
ltoes -30.2635
304
root 8.08709 16.0156 19.5775 -157.703 -4.07611 179.266
lowerback -24.6824 -4.28671 -3.7733
upperback 1.39394 -4.89306 1.2399
thorax 16.0035 -2.61953 1.72959
lowerneck -1.95857 -2.66022 -1.94614
upperneck 16.5163 -3.20994 4.12285
head 5.3857 -1.06773 1.47561
rclavicle 2.26118e-014 1.98785e-015
rhumerus -44.1595 -29.9393 -66.6808
rradius 24.9986
rwrist 10.5278
rhand -8.14939 -56.9457
rfingers 7.12502
rthumb 17.7651 -86.1543
lclavicle 2.26118e-014 1.98785e-015
lhumerus -24.4375 3.6964 82.5202
lradius 26.8926
lwrist -2.88048
lhand -21.4875 -13.5935
lfingers 7.12502
lthumb 4.90366 16.3298
rfemur -38.9292 4.3535 19.3425
rtibia 15.108
rfoot -9.33623 -8.33844
rtoes -38.2211
lfemur -15.4119 -10.3964 -20.3422
ltibia 34.7027
lfoot -8.43008 -3.58319
ltoes -26.1799
305
root 8.11057 16.0286 19.453 -157.698 -4.19412 179.356
lowerback -24.9993 -4.28181 -3.61508
upperback 1.51719 -4.92098 1.26335
thorax 16.3285 -2.61785 1.6347
lowerneck -2.03992 -2.72915 -1.75334
upperneck 16.5072 -3.30252 3.97283
head 5.39431 -1.11301 1.3905
rclavicle 1.00386e-014 -4.96962e-015
rhumerus -43.6403 -29.3256 -67.5089
rradius 25.5177
rwrist 9.45864
rhand -8.22842 -56.6393
rfingers 7.12502
rthumb 17.689 -85.8547
lclavicle 1.00386e-014 -4.96962e-015
lhumerus -24.5576 3.57205 82.4191
lradius 26.5201
lwrist -2.91507
lhand -22.225 -14.1489
lfingers 7.12502
lthumb 4.19146 15.7896
rfemur -38.2161 3.96837 19.8546
rtibia 14.7189
rfoot -9.45787 -7.79664
rtoes -38.3243
lfemur -16.3899 -9.92978 -20.1055
ltibia 37.063
lfoot -6.87155 -3.59423
ltoes -24.1397
306
root 8.13586 16.0418 19.3333 -157.702 -4.24807 179.361
lowerback -25.1188 -4.25974 -3.54239
upperback 1.54538 -4.90518 1.24003
thorax 16.4221 -2.60245 1.56487
lowerneck -2.13665 -2.7428 -1.57059
upperneck 16.638 -3.30988 3.83597
head 5.44661 -1.1084 1.31647
rclavicle -4.12975e-014 7.55382e-015
rhumerus -43.3132 -28.7214 -68.2584
rradius 26.0586
rwrist 8.63253
rhand -8.13752 -57.1688
rfingers 7.12502
rthumb 17.7765 -86.3763
lclavicle -4.12975e-014 7.55382e-015
lhumerus -24.9066 3.22675 82.3409
lradius 26.2483
lwrist -2.67536
lhand -21.0884 -13.493
lfingers 7.12502
lthumb 5.28904 16.421
rfemur -37.518 3.88556 20.1298
rtibia 14.3365
rfoot -9.64183 -7.52585
rtoes -37.1042
lfemur -17.3638 -9.43023 -19.9787
ltibia 39.3377
lfoot -4.95406 -3.49068
ltoes -22.0087
